<svg width="101" height="37" viewBox="0 0 101 37" fill="none" xmlns="http://www.w3.org/2000/svg">
<path d="M1.411 5.1H6.817C8.109 5.1 9.248 5.34933 10.234 5.848C11.2313 6.33533 12.002 7.02667 12.546 7.922C13.1013 8.81733 13.379 9.86 13.379 11.05C13.379 12.24 13.1013 13.2827 12.546 14.178C12.002 15.0733 11.2313 15.7703 10.234 16.269C9.248 16.7563 8.109 17 6.817 17H1.411V5.1ZM6.681 14.739C7.871 14.739 8.81733 14.4103 9.52 13.753C10.234 13.0843 10.591 12.1833 10.591 11.05C10.591 9.91667 10.234 9.02133 9.52 8.364C8.81733 7.69533 7.871 7.361 6.681 7.361H4.165V14.739H6.681ZM15.4559 5.1H18.2099V17H15.4559V5.1ZM28.871 14.45H23.346L22.292 17H19.47L24.774 5.1H27.494L32.815 17H29.925L28.871 14.45ZM28.004 12.359L26.117 7.803L24.23 12.359H28.004Z" fill="#D7A100"/>
<path d="M38.8641 5.1H44.2701C45.5621 5.1 46.7011 5.34933 47.6871 5.848C48.6845 6.33533 49.4551 7.02667 49.9991 7.922C50.5545 8.81733 50.8321 9.86 50.8321 11.05C50.8321 12.24 50.5545 13.2827 49.9991 14.178C49.4551 15.0733 48.6845 15.7703 47.6871 16.269C46.7011 16.7563 45.5621 17 44.2701 17H38.8641V5.1ZM44.1341 14.739C45.3241 14.739 46.2705 14.4103 46.9731 13.753C47.6871 13.0843 48.0441 12.1833 48.0441 11.05C48.0441 9.91667 47.6871 9.02133 46.9731 8.364C46.2705 7.69533 45.3241 7.361 44.1341 7.361H41.6181V14.739H44.1341ZM61.681 12.461C61.681 12.495 61.664 12.733 61.63 13.175H54.711C54.8357 13.7417 55.1304 14.1893 55.595 14.518C56.0597 14.8467 56.6377 15.011 57.329 15.011C57.805 15.011 58.2244 14.943 58.587 14.807C58.961 14.6597 59.3067 14.433 59.624 14.127L61.035 15.657C60.1737 16.643 58.9157 17.136 57.261 17.136C56.2297 17.136 55.3174 16.9377 54.524 16.541C53.7307 16.133 53.1187 15.572 52.688 14.858C52.2574 14.144 52.042 13.3337 52.042 12.427C52.042 11.5317 52.2517 10.727 52.671 10.013C53.1017 9.28767 53.6854 8.72667 54.422 8.33C55.17 7.922 56.003 7.718 56.921 7.718C57.8164 7.718 58.6267 7.91067 59.352 8.296C60.0774 8.68133 60.644 9.23667 61.052 9.962C61.4714 10.676 61.681 11.509 61.681 12.461ZM56.938 9.724C56.3374 9.724 55.833 9.894 55.425 10.234C55.017 10.574 54.7677 11.0387 54.677 11.628H59.182C59.0914 11.05 58.842 10.591 58.434 10.251C58.026 9.89967 57.5274 9.724 56.938 9.724ZM66.5237 17.136C65.7643 17.136 65.022 17.0453 64.2967 16.864C63.5713 16.6713 62.9933 16.4333 62.5627 16.15L63.4467 14.246C63.8547 14.5067 64.3477 14.722 64.9257 14.892C65.5037 15.0507 66.0703 15.13 66.6257 15.13C67.7477 15.13 68.3087 14.8523 68.3087 14.297C68.3087 14.0363 68.1557 13.8493 67.8497 13.736C67.5437 13.6227 67.0733 13.5263 66.4387 13.447C65.6907 13.3337 65.073 13.2033 64.5857 13.056C64.0983 12.9087 63.6733 12.648 63.3107 12.274C62.9593 11.9 62.7837 11.3673 62.7837 10.676C62.7837 10.098 62.948 9.588 63.2767 9.146C63.6167 8.69267 64.104 8.34133 64.7387 8.092C65.3847 7.84267 66.144 7.718 67.0167 7.718C67.6627 7.718 68.303 7.79167 68.9377 7.939C69.5837 8.075 70.1163 8.26767 70.5357 8.517L69.6517 10.404C68.847 9.95067 67.9687 9.724 67.0167 9.724C66.45 9.724 66.025 9.80333 65.7417 9.962C65.4583 10.1207 65.3167 10.3247 65.3167 10.574C65.3167 10.8573 65.4697 11.0557 65.7757 11.169C66.0817 11.2823 66.569 11.39 67.2377 11.492C67.9857 11.6167 68.5977 11.7527 69.0737 11.9C69.5497 12.036 69.9633 12.291 70.3147 12.665C70.666 13.039 70.8417 13.5603 70.8417 14.229C70.8417 14.7957 70.6717 15.3 70.3317 15.742C69.9917 16.184 69.493 16.5297 68.8357 16.779C68.1897 17.017 67.419 17.136 66.5237 17.136ZM72.4779 7.854H75.1299V17H72.4779V7.854ZM73.8039 6.579C73.3166 6.579 72.9199 6.43733 72.6139 6.154C72.3079 5.87067 72.1549 5.51933 72.1549 5.1C72.1549 4.68067 72.3079 4.32933 72.6139 4.046C72.9199 3.76267 73.3166 3.621 73.8039 3.621C74.2912 3.621 74.6879 3.757 74.9939 4.029C75.2999 4.301 75.4529 4.641 75.4529 5.049C75.4529 5.491 75.2999 5.85933 74.9939 6.154C74.6879 6.43733 74.2912 6.579 73.8039 6.579ZM87.0262 7.854V15.47C87.0262 17.1473 86.5899 18.394 85.7172 19.21C84.8445 20.026 83.5695 20.434 81.8922 20.434C81.0082 20.434 80.1695 20.3263 79.3762 20.111C78.5829 19.8957 77.9255 19.584 77.4042 19.176L78.4582 17.272C78.8435 17.5893 79.3309 17.8387 79.9202 18.02C80.5095 18.2127 81.0989 18.309 81.6882 18.309C82.6062 18.309 83.2805 18.0993 83.7112 17.68C84.1532 17.272 84.3742 16.6487 84.3742 15.81V15.419C83.6829 16.1783 82.7195 16.558 81.4842 16.558C80.6455 16.558 79.8749 16.3767 79.1722 16.014C78.4809 15.64 77.9312 15.1187 77.5232 14.45C77.1152 13.7813 76.9112 13.0107 76.9112 12.138C76.9112 11.2653 77.1152 10.4947 77.5232 9.826C77.9312 9.15733 78.4809 8.64167 79.1722 8.279C79.8749 7.905 80.6455 7.718 81.4842 7.718C82.8102 7.718 83.8189 8.15433 84.5102 9.027V7.854H87.0262ZM82.0112 14.382C82.7139 14.382 83.2862 14.178 83.7282 13.77C84.1815 13.3507 84.4082 12.8067 84.4082 12.138C84.4082 11.4693 84.1815 10.931 83.7282 10.523C83.2862 10.1037 82.7139 9.894 82.0112 9.894C81.3085 9.894 80.7305 10.1037 80.2772 10.523C79.8239 10.931 79.5972 11.4693 79.5972 12.138C79.5972 12.8067 79.8239 13.3507 80.2772 13.77C80.7305 14.178 81.3085 14.382 82.0112 14.382ZM95.0535 7.718C96.1868 7.718 97.0992 8.058 97.7905 8.738C98.4932 9.418 98.8445 10.4267 98.8445 11.764V17H96.1925V12.172C96.1925 11.4467 96.0338 10.9083 95.7165 10.557C95.3992 10.1943 94.9402 10.013 94.3395 10.013C93.6708 10.013 93.1382 10.2227 92.7415 10.642C92.3448 11.05 92.1465 11.662 92.1465 12.478V17H89.4945V7.854H92.0275V8.925C92.3788 8.53967 92.8152 8.245 93.3365 8.041C93.8578 7.82567 94.4302 7.718 95.0535 7.718Z" fill="#242424"/>
<path d="M9.132 33.232V35.884H8.304V34H0.972L0.96 35.884H0.132L0.144 33.232H0.564C1.116 33.2 1.5 32.764 1.716 31.924C1.932 31.076 2.064 29.876 2.112 28.324L2.208 25.6H7.872V33.232H9.132ZM2.904 28.408C2.864 29.688 2.764 30.744 2.604 31.576C2.452 32.4 2.192 32.952 1.824 33.232H6.996V26.368H2.976L2.904 28.408ZM10.7393 27.688H11.5913V32.704L15.8033 27.688H16.5593V34H15.7073V28.984L11.5073 34H10.7393V27.688ZM21.9442 30.712C22.3922 30.816 22.7362 30.996 22.9762 31.252C23.2242 31.508 23.3482 31.82 23.3482 32.188C23.3482 32.556 23.2202 32.884 22.9642 33.172C22.7162 33.46 22.3762 33.684 21.9442 33.844C21.5122 33.996 21.0362 34.072 20.5162 34.072C20.0602 34.072 19.6122 34.008 19.1722 33.88C18.7322 33.744 18.3482 33.548 18.0202 33.292L18.3082 32.656C18.5962 32.872 18.9322 33.04 19.3162 33.16C19.7002 33.28 20.0882 33.34 20.4802 33.34C21.0642 33.34 21.5402 33.232 21.9082 33.016C22.2842 32.792 22.4722 32.492 22.4722 32.116C22.4722 31.78 22.3202 31.52 22.0162 31.336C21.7122 31.144 21.2962 31.048 20.7682 31.048H19.6882V30.424H20.7202C21.1922 30.424 21.5722 30.336 21.8602 30.16C22.1482 29.976 22.2922 29.732 22.2922 29.428C22.2922 29.092 22.1282 28.828 21.8002 28.636C21.4802 28.444 21.0602 28.348 20.5402 28.348C19.8602 28.348 19.1882 28.52 18.5242 28.864L18.2842 28.204C19.0362 27.812 19.8162 27.616 20.6242 27.616C21.1042 27.616 21.5362 27.688 21.9202 27.832C22.3122 27.968 22.6162 28.164 22.8322 28.42C23.0562 28.676 23.1682 28.972 23.1682 29.308C23.1682 29.628 23.0562 29.912 22.8322 30.16C22.6162 30.408 22.3202 30.592 21.9442 30.712ZM27.4543 27.64C28.2783 27.64 28.9103 27.848 29.3503 28.264C29.7903 28.672 30.0103 29.28 30.0103 30.088V34H29.1943V33.016C29.0023 33.344 28.7183 33.6 28.3423 33.784C27.9743 33.968 27.5343 34.06 27.0223 34.06C26.3183 34.06 25.7583 33.892 25.3423 33.556C24.9263 33.22 24.7183 32.776 24.7183 32.224C24.7183 31.688 24.9103 31.256 25.2943 30.928C25.6863 30.6 26.3063 30.436 27.1543 30.436H29.1583V30.052C29.1583 29.508 29.0063 29.096 28.7023 28.816C28.3983 28.528 27.9543 28.384 27.3703 28.384C26.9703 28.384 26.5863 28.452 26.2183 28.588C25.8503 28.716 25.5343 28.896 25.2703 29.128L24.8863 28.492C25.2063 28.22 25.5903 28.012 26.0383 27.868C26.4863 27.716 26.9583 27.64 27.4543 27.64ZM27.1543 33.388C27.6343 33.388 28.0463 33.28 28.3903 33.064C28.7343 32.84 28.9903 32.52 29.1583 32.104V31.072H27.1783C26.0983 31.072 25.5583 31.448 25.5583 32.2C25.5583 32.568 25.6983 32.86 25.9783 33.076C26.2583 33.284 26.6503 33.388 27.1543 33.388ZM32.2784 27.688H33.1304V32.704L37.3424 27.688H38.0984V34H37.2464V28.984L33.0464 34H32.2784V27.688ZM35.1464 26.776C34.6024 26.776 34.1704 26.64 33.8504 26.368C33.5304 26.096 33.3664 25.712 33.3584 25.216H33.9704C33.9784 25.528 34.0904 25.78 34.3064 25.972C34.5224 26.156 34.8024 26.248 35.1464 26.248C35.4904 26.248 35.7704 26.156 35.9864 25.972C36.2104 25.78 36.3264 25.528 36.3344 25.216H36.9464C36.9384 25.712 36.7704 26.096 36.4424 26.368C36.1224 26.64 35.6904 26.776 35.1464 26.776ZM40.5401 27.688H41.3921V30.484H45.3641V27.688H46.2161V34H45.3641V31.216H41.3921V34H40.5401V27.688ZM51.2864 30.376H54.4304V31.12H51.2864V30.376ZM62.1411 34.06C61.5171 34.06 60.9571 33.924 60.4611 33.652C59.9731 33.38 59.5891 33 59.3091 32.512C59.0291 32.016 58.8891 31.46 58.8891 30.844C58.8891 30.228 59.0291 29.676 59.3091 29.188C59.5891 28.7 59.9731 28.32 60.4611 28.048C60.9571 27.776 61.5171 27.64 62.1411 27.64C62.6851 27.64 63.1691 27.748 63.5931 27.964C64.0251 28.172 64.3651 28.48 64.6131 28.888L63.9771 29.32C63.7691 29.008 63.5051 28.776 63.1851 28.624C62.8651 28.464 62.5171 28.384 62.1411 28.384C61.6851 28.384 61.2731 28.488 60.9051 28.696C60.5451 28.896 60.2611 29.184 60.0531 29.56C59.8531 29.936 59.7531 30.364 59.7531 30.844C59.7531 31.332 59.8531 31.764 60.0531 32.14C60.2611 32.508 60.5451 32.796 60.9051 33.004C61.2731 33.204 61.6851 33.304 62.1411 33.304C62.5171 33.304 62.8651 33.228 63.1851 33.076C63.5051 32.924 63.7691 32.692 63.9771 32.38L64.6131 32.812C64.3651 33.22 64.0251 33.532 63.5931 33.748C63.1611 33.956 62.6771 34.06 62.1411 34.06ZM70.5856 28.444H68.1976V34H67.3456V28.444H64.9576V27.688H70.5856V28.444ZM77.2049 27.688L74.0489 34.756C73.7929 35.348 73.4969 35.768 73.1609 36.016C72.8249 36.264 72.4209 36.388 71.9489 36.388C71.6449 36.388 71.3609 36.34 71.0969 36.244C70.8329 36.148 70.6049 36.004 70.4129 35.812L70.8089 35.176C71.1289 35.496 71.5129 35.656 71.9609 35.656C72.2489 35.656 72.4929 35.576 72.6929 35.416C72.9009 35.256 73.0929 34.984 73.2689 34.6L73.5449 33.988L70.7249 27.688H71.6129L73.9889 33.052L76.3649 27.688H77.2049ZM84.4071 33.256V35.524H83.6031V34H77.9511V35.524H77.1471V33.256H77.5071C77.9311 33.232 78.2191 32.92 78.3711 32.32C78.5231 31.72 78.6271 30.88 78.6831 29.8L78.7671 27.688H83.4231V33.256H84.4071ZM79.4631 29.848C79.4231 30.744 79.3471 31.484 79.2351 32.068C79.1231 32.644 78.9231 33.04 78.6351 33.256H82.5711V28.444H79.5351L79.4631 29.848ZM86.0675 27.688H86.9195V32.704L91.1315 27.688H91.8875V34H91.0355V28.984L86.8355 34H86.0675V27.688ZM99.1772 27.688V34H98.3972V31.912H96.4172H96.1772L94.7132 34H93.7892L95.3612 31.792C94.8732 31.656 94.4972 31.424 94.2332 31.096C93.9692 30.768 93.8372 30.352 93.8372 29.848C93.8372 29.144 94.0772 28.608 94.5572 28.24C95.0372 27.872 95.6932 27.688 96.5252 27.688H99.1772ZM94.7012 29.872C94.7012 30.808 95.2972 31.276 96.4892 31.276H98.3972V28.444H96.5492C95.3172 28.444 94.7012 28.92 94.7012 29.872Z" fill="#242424"/>
</svg>
